<mxfile host="app.diagrams.net" modified="2023-05-25T22:07:20.433Z" agent="Mozilla/5.0 (Macintosh; Intel Mac OS X 10_15_7) AppleWebKit/537.36 (KHTML, like Gecko) Chrome/113.0.0.0 Safari/537.36" version="21.3.4" etag="Bzv4wkW7vAVCyHvoPHC-" type="github">
  <diagram name="Page-1" id="9xXqxLMX3umURaw_fP6i">
    <mxGraphModel>
      <root>
        <mxCell id="0" />
        <mxCell id="1" parent="0" />
      </root>
    </mxGraphModel>
  </diagram>
</mxfile>
